# xmcd
#
# Track frame offsets:
#	150
#	14885
#	30655
#	44207
#	58227
#	74135
#	90120
#	102605
#	117270
#	132182
#
# Disc length: 3073 seconds
#
# Revision: 0
# Processed by: cddbd v1.5PL3 Copyright (c) Steve Scherf et al.
# Submitted via: dBpowerAMP V4.0
#
DISCID=980bff0a
DTITLE=Jose manuel Figueroa - Mala Hierba
DYEAR=1900
DGENRE=Latin
TTITLE0=Alza El Vuelo
TTITLE1=Mala Hierba
TTITLE2=Despues De Amarle
TTITLE3=Sin Sal Ni Limon
TTITLE4=El Primer Tonto
TTITLE5=La Fama Del Muchacho
TTITLE6=Si Quieres
TTITLE7=Gaby
TTITLE8=Excepto El Corazon
TTITLE9=Tu Dilema
EXTD=
EXTT0=
EXTT1=
EXTT2=
EXTT3=
EXTT4=
EXTT5=
EXTT6=
EXTT7=
EXTT8=
EXTT9=
PLAYORDER=
